<?xml version="1.0" encoding="UTF-8" standalone="no"?>
<!DOCTYPE svg PUBLIC "-//W3C//DTD SVG 1.1//EN"
 "http://www.w3.org/Graphics/SVG/1.1/DTD/svg11.dtd">
<!-- Generated by graphviz version 2.36.0 (20140111.2315)
 -->
<!-- Title: models_diagram Pages: 1 -->
<svg width="212pt" height="374pt"
 viewBox="0.00 0.00 212.00 374.00" xmlns="http://www.w3.org/2000/svg" xmlns:xlink="http://www.w3.org/1999/xlink">
<g id="graph0" class="graph" transform="scale(1 1) rotate(0) translate(4 370)">
<title>models_diagram</title>
<polygon fill="white" stroke="none" points="-4,4 -4,-370 208,-370 208,4 -4,4"/>
<!-- Favorite -->
<g id="node1" class="node"><title>Favorite</title>
<path fill="none" stroke="black" d="M47.4946,-1C47.4946,-1 156.505,-1 156.505,-1 162.505,-1 168.505,-7 168.505,-13 168.505,-13 168.505,-103 168.505,-103 168.505,-109 162.505,-115 156.505,-115 156.505,-115 47.4946,-115 47.4946,-115 41.4946,-115 35.4946,-109 35.4946,-103 35.4946,-103 35.4946,-13 35.4946,-13 35.4946,-7 41.4946,-1 47.4946,-1"/>
<text text-anchor="middle" x="102" y="-99.8" font-family="Times,serif" font-size="14.00">Favorite</text>
<polyline fill="none" stroke="black" points="35.4946,-93 168.505,-93 "/>
<text text-anchor="start" x="43.4946" y="-77.8" font-family="Times,serif" font-size="14.00">id :integer</text>
<text text-anchor="start" x="43.4946" y="-63.8" font-family="Times,serif" font-size="14.00">name :text</text>
<text text-anchor="start" x="43.4946" y="-49.8" font-family="Times,serif" font-size="14.00">venue_id :integer</text>
<text text-anchor="start" x="43.4946" y="-35.8" font-family="Times,serif" font-size="14.00">user_id :integer</text>
<text text-anchor="start" x="43.4946" y="-21.8" font-family="Times,serif" font-size="14.00">created_at :datetime</text>
<text text-anchor="start" x="43.4946" y="-7.8" font-family="Times,serif" font-size="14.00">updated_at :datetime</text>
</g>
<!-- User -->
<g id="node2" class="node"><title>User</title>
<path fill="none" stroke="black" d="M11.7222,-153C11.7222,-153 192.278,-153 192.278,-153 198.278,-153 204.278,-159 204.278,-165 204.278,-165 204.278,-353 204.278,-353 204.278,-359 198.278,-365 192.278,-365 192.278,-365 11.7222,-365 11.7222,-365 5.72217,-365 -0.277832,-359 -0.277832,-353 -0.277832,-353 -0.277832,-165 -0.277832,-165 -0.277832,-159 5.72217,-153 11.7222,-153"/>
<text text-anchor="middle" x="102" y="-349.8" font-family="Times,serif" font-size="14.00">User</text>
<polyline fill="none" stroke="black" points="-0.277832,-343 204.278,-343 "/>
<text text-anchor="start" x="7.72217" y="-327.8" font-family="Times,serif" font-size="14.00">id :integer</text>
<text text-anchor="start" x="7.72217" y="-313.8" font-family="Times,serif" font-size="14.00">email :string</text>
<text text-anchor="start" x="7.72217" y="-299.8" font-family="Times,serif" font-size="14.00">encrypted_password :string</text>
<text text-anchor="start" x="7.72217" y="-285.8" font-family="Times,serif" font-size="14.00">reset_password_token :string</text>
<text text-anchor="start" x="7.72217" y="-271.8" font-family="Times,serif" font-size="14.00">reset_password_sent_at :datetime</text>
<text text-anchor="start" x="7.72217" y="-257.8" font-family="Times,serif" font-size="14.00">remember_created_at :datetime</text>
<text text-anchor="start" x="7.72217" y="-243.8" font-family="Times,serif" font-size="14.00">sign_in_count :integer</text>
<text text-anchor="start" x="7.72217" y="-229.8" font-family="Times,serif" font-size="14.00">current_sign_in_at :datetime</text>
<text text-anchor="start" x="7.72217" y="-215.8" font-family="Times,serif" font-size="14.00">last_sign_in_at :datetime</text>
<text text-anchor="start" x="7.72217" y="-201.8" font-family="Times,serif" font-size="14.00">current_sign_in_ip :string</text>
<text text-anchor="start" x="7.72217" y="-187.8" font-family="Times,serif" font-size="14.00">last_sign_in_ip :string</text>
<text text-anchor="start" x="7.72217" y="-173.8" font-family="Times,serif" font-size="14.00">created_at :datetime</text>
<text text-anchor="start" x="7.72217" y="-159.8" font-family="Times,serif" font-size="14.00">updated_at :datetime</text>
</g>
<!-- User&#45;&gt;Favorite -->
<g id="edge1" class="edge"><title>User&#45;&gt;Favorite</title>
<path fill="none" stroke="#2d3c30" d="M102,-144.712C102,-138.148 102,-131.665 102,-125.381"/>
<ellipse fill="none" stroke="#2d3c30" cx="102" cy="-148.964" rx="4" ry="4"/>
<polygon fill="#2d3c30" stroke="#2d3c30" points="102,-125.014 106.5,-115.014 102,-120.014 102,-115.014 102,-115.014 102,-115.014 102,-120.014 97.5,-115.014 102,-125.014 102,-125.014"/>
</g>
</g>
</svg>
